solid arrow
   facet normal 1.000000e+000 0.000000e+000 5.827942e-015
      outer loop
         vertex 5.000000e+000 5.000000e+000 0.000000e+000
         vertex 5.000000e+000 5.000000e+000 1.000000e+000
         vertex 5.000000e+000 0.000000e+000 0.000000e+000
      endloop
   endfacet
   facet normal 1.000000e+000 0.000000e+000 5.827942e-015
      outer loop
         vertex 5.000000e+000 0.000000e+000 0.000000e+000
         vertex 5.000000e+000 5.000000e+000 1.000000e+000
         vertex 5.000000e+000 0.000000e+000 1.000000e+000
      endloop
   endfacet
   facet normal -7.682213e-001 0.000000e+000 -6.401845e-001
      outer loop
         vertex 0.000000e+000 5.000000e+000 6.000000e+000
         vertex 5.000000e+000 5.000000e+000 0.000000e+000
         vertex 0.000000e+000 0.000000e+000 6.000000e+000
      endloop
   endfacet
   facet normal -7.682213e-001 0.000000e+000 -6.401845e-001
      outer loop
         vertex 0.000000e+000 0.000000e+000 6.000000e+000
         vertex 5.000000e+000 5.000000e+000 0.000000e+000
         vertex 5.000000e+000 0.000000e+000 0.000000e+000
      endloop
   endfacet
   facet normal -7.682213e-001 0.000000e+000 6.401845e-001
      outer loop
         vertex 5.000000e+000 5.000000e+000 1.200000e+001
         vertex 0.000000e+000 5.000000e+000 6.000000e+000
         vertex 5.000000e+000 0.000000e+000 1.200000e+001
      endloop
   endfacet
   facet normal -7.682213e-001 0.000000e+000 6.401845e-001
      outer loop
         vertex 5.000000e+000 0.000000e+000 1.200000e+001
         vertex 0.000000e+000 5.000000e+000 6.000000e+000
         vertex 0.000000e+000 0.000000e+000 6.000000e+000
      endloop
   endfacet
   facet normal 1.000000e+000 0.000000e+000 0.000000e+000
      outer loop
         vertex 5.000000e+000 5.000000e+000 1.100000e+001
         vertex 5.000000e+000 5.000000e+000 1.200000e+001
         vertex 5.000000e+000 0.000000e+000 1.100000e+001
      endloop
   endfacet
   facet normal 1.000000e+000 0.000000e+000 0.000000e+000
      outer loop
         vertex 5.000000e+000 0.000000e+000 1.100000e+001
         vertex 5.000000e+000 5.000000e+000 1.200000e+001
         vertex 5.000000e+000 0.000000e+000 1.200000e+001
      endloop
   endfacet
   facet normal 1.217949e-016 0.000000e+000 1.000000e+000
      outer loop
         vertex 2.500000e+001 5.000000e+000 1.100000e+001
         vertex 5.000000e+000 5.000000e+000 1.100000e+001
         vertex 2.500000e+001 0.000000e+000 1.100000e+001
      endloop
   endfacet
   facet normal 1.217949e-016 0.000000e+000 1.000000e+000
      outer loop
         vertex 2.500000e+001 0.000000e+000 1.100000e+001
         vertex 5.000000e+000 5.000000e+000 1.100000e+001
         vertex 5.000000e+000 0.000000e+000 1.100000e+001
      endloop
   endfacet
   facet normal 1.000000e+000 0.000000e+000 -1.206566e-016
      outer loop
         vertex 2.500000e+001 5.000000e+000 1.000000e+000
         vertex 2.500000e+001 5.000000e+000 1.100000e+001
         vertex 2.500000e+001 0.000000e+000 1.000000e+000
      endloop
   endfacet
   facet normal 1.000000e+000 0.000000e+000 -1.206566e-016
      outer loop
         vertex 2.500000e+001 0.000000e+000 1.000000e+000
         vertex 2.500000e+001 5.000000e+000 1.100000e+001
         vertex 2.500000e+001 0.000000e+000 1.100000e+001
      endloop
   endfacet
   facet normal -1.456986e-016 0.000000e+000 -1.000000e+000
      outer loop
         vertex 5.000000e+000 5.000000e+000 1.000000e+000
         vertex 2.500000e+001 5.000000e+000 1.000000e+000
         vertex 5.000000e+000 0.000000e+000 1.000000e+000
      endloop
   endfacet
   facet normal -1.456986e-016 0.000000e+000 -1.000000e+000
      outer loop
         vertex 5.000000e+000 0.000000e+000 1.000000e+000
         vertex 2.500000e+001 5.000000e+000 1.000000e+000
         vertex 2.500000e+001 0.000000e+000 1.000000e+000
      endloop
   endfacet
   facet normal 0.000000e+000 1.000000e+000 0.000000e+000
      outer loop
         vertex 0.000000e+000 5.000000e+000 6.000000e+000
         vertex 5.000000e+000 5.000000e+000 1.200000e+001
         vertex 5.000000e+000 5.000000e+000 1.100000e+001
      endloop
   endfacet
   facet normal 0.000000e+000 1.000000e+000 0.000000e+000
      outer loop
         vertex 2.500000e+001 5.000000e+000 1.100000e+001
         vertex 2.500000e+001 5.000000e+000 1.000000e+000
         vertex 5.000000e+000 5.000000e+000 1.100000e+001
      endloop
   endfacet
   facet normal 0.000000e+000 1.000000e+000 0.000000e+000
      outer loop
         vertex 5.000000e+000 5.000000e+000 1.100000e+001
         vertex 2.500000e+001 5.000000e+000 1.000000e+000
         vertex 5.000000e+000 5.000000e+000 1.000000e+000
      endloop
   endfacet
   facet normal 0.000000e+000 1.000000e+000 0.000000e+000
      outer loop
         vertex 5.000000e+000 5.000000e+000 1.100000e+001
         vertex 5.000000e+000 5.000000e+000 1.000000e+000
         vertex 0.000000e+000 5.000000e+000 6.000000e+000
      endloop
   endfacet
   facet normal 0.000000e+000 1.000000e+000 0.000000e+000
      outer loop
         vertex 0.000000e+000 5.000000e+000 6.000000e+000
         vertex 5.000000e+000 5.000000e+000 1.000000e+000
         vertex 5.000000e+000 5.000000e+000 0.000000e+000
      endloop
   endfacet
   facet normal 0.000000e+000 -1.000000e+000 0.000000e+000
      outer loop
         vertex 0.000000e+000 0.000000e+000 6.000000e+000
         vertex 5.000000e+000 0.000000e+000 0.000000e+000
         vertex 5.000000e+000 0.000000e+000 1.000000e+000
      endloop
   endfacet
   facet normal 0.000000e+000 -1.000000e+000 0.000000e+000
      outer loop
         vertex 2.500000e+001 0.000000e+000 1.000000e+000
         vertex 2.500000e+001 0.000000e+000 1.100000e+001
         vertex 5.000000e+000 0.000000e+000 1.000000e+000
      endloop
   endfacet
   facet normal 0.000000e+000 -1.000000e+000 0.000000e+000
      outer loop
         vertex 5.000000e+000 0.000000e+000 1.000000e+000
         vertex 2.500000e+001 0.000000e+000 1.100000e+001
         vertex 5.000000e+000 0.000000e+000 1.100000e+001
      endloop
   endfacet
   facet normal 0.000000e+000 -1.000000e+000 0.000000e+000
      outer loop
         vertex 5.000000e+000 0.000000e+000 1.000000e+000
         vertex 5.000000e+000 0.000000e+000 1.100000e+001
         vertex 0.000000e+000 0.000000e+000 6.000000e+000
      endloop
   endfacet
   facet normal 0.000000e+000 -1.000000e+000 0.000000e+000
      outer loop
         vertex 0.000000e+000 0.000000e+000 6.000000e+000
         vertex 5.000000e+000 0.000000e+000 1.100000e+001
         vertex 5.000000e+000 0.000000e+000 1.200000e+001
      endloop
   endfacet
endsolid