solid Jacob_final_print
   facet normal 5.535533e-001 8.328137e-001 0.000000e+000
      outer loop
         vertex 1.382604e+002 4.322797e+001 7.620000e+001
         vertex 1.382604e+002 4.322797e+001 1.110223e-013
         vertex 1.305373e+002 4.852196e+001 1.110223e-013
      endloop
   endfacet
   facet normal 5.812566e-001 8.137203e-001 0.000000e+000
      outer loop
         vertex 1.382604e+002 4.322797e+001 7.620000e+001
         vertex 1.305373e+002 4.852196e+001 1.110223e-013
         vertex 1.305373e+002 4.852196e+001 7.620000e+001
      endloop
   endfacet
   facet normal 6.379231e-001 7.701001e-001 0.000000e+000
      outer loop
         vertex 1.305373e+002 4.852196e+001 7.620000e+001
         vertex 1.305373e+002 4.852196e+001 1.110223e-013
         vertex 1.245390e+002 5.365825e+001 9.714451e-014
      endloop
   endfacet
   facet normal 6.666982e-001 7.453277e-001 0.000000e+000
      outer loop
         vertex 1.305373e+002 4.852196e+001 7.620000e+001
         vertex 1.245390e+002 5.365825e+001 9.714451e-014
         vertex 1.245390e+002 5.365825e+001 7.620000e+001
      endloop
   endfacet
   facet normal 7.241413e-001 6.896515e-001 0.000000e+000
      outer loop
         vertex 1.245390e+002 5.365825e+001 7.620000e+001
         vertex 1.245390e+002 5.365825e+001 9.714451e-014
         vertex 1.199617e+002 5.864721e+001 1.110223e-013
      endloop
   endfacet
   facet normal 7.525757e-001 6.585057e-001 0.000000e+000
      outer loop
         vertex 1.245390e+002 5.365825e+001 7.620000e+001
         vertex 1.199617e+002 5.864721e+001 1.110223e-013
         vertex 1.199617e+002 5.864721e+001 7.620000e+001
      endloop
   endfacet
   facet normal 8.076743e-001 5.896289e-001 0.000000e+000
      outer loop
         vertex 1.199617e+002 5.864721e+001 7.620000e+001
         vertex 1.199617e+002 5.864721e+001 1.110223e-013
         vertex 1.164859e+002 6.362575e+001 1.110223e-013
      endloop
   endfacet
   facet normal 8.340598e-001 5.516740e-001 0.000000e+000
      outer loop
         vertex 1.199617e+002 5.864721e+001 7.620000e+001
         vertex 1.164859e+002 6.362575e+001 1.110223e-013
         vertex 1.164859e+002 6.362575e+001 7.620000e+001
      endloop
   endfacet
   facet normal 8.834940e-001 4.684426e-001 0.000000e+000
      outer loop
         vertex 1.164859e+002 6.362575e+001 7.620000e+001
         vertex 1.164859e+002 6.362575e+001 1.110223e-013
         vertex 1.137956e+002 6.901740e+001 9.714451e-014
      endloop
   endfacet
   facet normal 9.061590e-001 4.229371e-001 0.000000e+000
      outer loop
         vertex 1.164859e+002 6.362575e+001 7.620000e+001
         vertex 1.137956e+002 6.901740e+001 9.714451e-014
         vertex 1.137956e+002 6.901740e+001 7.620000e+001
      endloop
   endfacet
   facet normal 9.435382e-001 3.312635e-001 0.000000e+000
      outer loop
         vertex 1.137956e+002 6.901740e+001 7.620000e+001
         vertex 1.137956e+002 6.901740e+001 9.714451e-014
         vertex 1.119764e+002 7.465047e+001 1.110223e-013
      endloop
   endfacet
   facet normal 9.584725e-001 2.851848e-001 0.000000e+000
      outer loop
         vertex 1.137956e+002 6.901740e+001 7.620000e+001
         vertex 1.119764e+002 7.465047e+001 1.110223e-013
         vertex 1.119764e+002 7.465047e+001 7.620000e+001
      endloop
   endfacet
   facet normal 9.808908e-001 1.945592e-001 0.000000e+000
      outer loop
         vertex 1.119764e+002 7.465047e+001 7.620000e+001
         vertex 1.119764e+002 7.465047e+001 1.110223e-013
         vertex 1.108709e+002 8.106200e+001 1.110223e-013
      endloop
   endfacet
   facet normal 9.886730e-001 1.500855e-001 0.000000e+000
      outer loop
         vertex 1.119764e+002 7.465047e+001 7.620000e+001
         vertex 1.108709e+002 8.106200e+001 1.110223e-013
         vertex 1.108709e+002 8.106200e+001 7.620000e+001
      endloop
   endfacet
   facet normal 9.977798e-001 6.659850e-002 0.000000e+000
      outer loop
         vertex 1.108709e+002 8.106200e+001 7.620000e+001
         vertex 1.108709e+002 8.106200e+001 1.110223e-013
         vertex 1.105469e+002 8.836840e+001 1.110223e-013
      endloop
   endfacet
   facet normal 9.996179e-001 2.763953e-002 0.000000e+000
      outer loop
         vertex 1.108709e+002 8.106200e+001 7.620000e+001
         vertex 1.105469e+002 8.836840e+001 1.110223e-013
         vertex 1.105469e+002 8.836840e+001 7.620000e+001
      endloop
   endfacet
   facet normal 9.990528e-001 -4.351322e-002 0.000000e+000
      outer loop
         vertex 1.105469e+002 8.836840e+001 7.620000e+001
         vertex 1.105469e+002 8.836840e+001 1.110223e-013
         vertex 1.110844e+002 9.690947e+001 1.249001e-013
      endloop
   endfacet
   facet normal 9.971297e-001 -7.571242e-002 0.000000e+000
      outer loop
         vertex 1.105469e+002 8.836840e+001 7.620000e+001
         vertex 1.110844e+002 9.690947e+001 1.249001e-013
         vertex 1.110844e+002 9.690947e+001 7.620000e+001
      endloop
   endfacet
   facet normal 9.910854e-001 -1.332281e-001 0.000000e+000
      outer loop
         vertex 1.110844e+002 9.690947e+001 7.620000e+001
         vertex 1.110844e+002 9.690947e+001 1.249001e-013
         vertex 1.125858e+002 1.069032e+002 1.110223e-013
      endloop
   endfacet
   facet normal 9.873452e-001 -1.585859e-001 0.000000e+000
      outer loop
         vertex 1.110844e+002 9.690947e+001 7.620000e+001
         vertex 1.125858e+002 1.069032e+002 1.110223e-013
         vertex 1.125858e+002 1.069032e+002 7.620000e+001
      endloop
   endfacet
   facet normal 9.794295e-001 -2.017865e-001 0.000000e+000
      outer loop
         vertex 1.125858e+002 1.069032e+002 7.620000e+001
         vertex 1.125858e+002 1.069032e+002 1.110223e-013
         vertex 1.151780e+002 1.187704e+002 1.110223e-013
      endloop
   endfacet
   facet normal 9.755701e-001 -2.196883e-001 0.000000e+000
      outer loop
         vertex 1.125858e+002 1.069032e+002 7.620000e+001
         vertex 1.151780e+002 1.187704e+002 1.110223e-013
         vertex 1.151780e+002 1.187704e+002 7.620000e+001
      endloop
   endfacet
   facet normal 9.686362e-001 -2.484833e-001 0.000000e+000
      outer loop
         vertex 1.151780e+002 1.187704e+002 7.620000e+001
         vertex 1.151780e+002 1.187704e+002 1.110223e-013
         vertex 1.204326e+002 1.383704e+002 1.110223e-013
      endloop
   endfacet
   facet normal 9.657630e-001 -2.594257e-001 0.000000e+000
      outer loop
         vertex 1.151780e+002 1.187704e+002 7.620000e+001
         vertex 1.204326e+002 1.383704e+002 1.110223e-013
         vertex 1.204326e+002 1.383704e+002 7.620000e+001
      endloop
   endfacet
   facet normal 9.649495e-001 -2.624358e-001 0.000000e+000
      outer loop
         vertex 1.204326e+002 1.383704e+002 7.620000e+001
         vertex 1.204326e+002 1.383704e+002 1.110223e-013
         vertex 1.264144e+002 1.602898e+002 1.110223e-013
      endloop
   endfacet
   facet normal 9.670675e-001 -2.545200e-001 0.000000e+000
      outer loop
         vertex 1.204326e+002 1.383704e+002 7.620000e+001
         vertex 1.264144e+002 1.602898e+002 1.110223e-013
         vertex 1.264144e+002 1.602898e+002 7.620000e+001
      endloop
   endfacet
   facet normal 9.725701e-001 -2.326103e-001 0.000000e+000
      outer loop
         vertex 1.264144e+002 1.602898e+002 7.620000e+001
         vertex 1.264144e+002 1.602898e+002 1.110223e-013
         vertex 1.295318e+002 1.736408e+002 1.110223e-013
      endloop
   endfacet
   facet normal 9.758186e-001 -2.185819e-001 0.000000e+000
      outer loop
         vertex 1.264144e+002 1.602898e+002 7.620000e+001
         vertex 1.295318e+002 1.736408e+002 1.110223e-013
         vertex 1.295318e+002 1.736408e+002 7.620000e+001
      endloop
   endfacet
   facet normal 9.826447e-001 -1.854978e-001 0.000000e+000
      outer loop
         vertex 1.295318e+002 1.736408e+002 7.620000e+001
         vertex 1.295318e+002 1.736408e+002 1.110223e-013
         vertex 1.317674e+002 1.860417e+002 9.714451e-014
      endloop
   endfacet
   facet normal 9.860570e-001 -1.664075e-001 0.000000e+000
      outer loop
         vertex 1.295318e+002 1.736408e+002 7.620000e+001
         vertex 1.317674e+002 1.860417e+002 9.714451e-014
         vertex 1.317674e+002 1.860417e+002 7.620000e+001
      endloop
   endfacet
   facet normal 9.922079e-001 -1.245930e-001 0.000000e+000
      outer loop
         vertex 1.317674e+002 1.860417e+002 7.620000e+001
         vertex 1.317674e+002 1.860417e+002 9.714451e-014
         vertex 1.330585e+002 1.972409e+002 1.110223e-013
      endloop
   endfacet
   facet normal 9.948001e-001 -1.018469e-001 0.000000e+000
      outer loop
         vertex 1.317674e+002 1.860417e+002 7.620000e+001
         vertex 1.330585e+002 1.972409e+002 1.110223e-013
         vertex 1.330585e+002 1.972409e+002 7.620000e+001
      endloop
   endfacet
   facet normal 9.985589e-001 -5.366673e-002 0.000000e+000
      outer loop
         vertex 1.330585e+002 1.972409e+002 7.620000e+001
         vertex 1.330585e+002 1.972409e+002 1.110223e-013
         vertex 1.334959e+002 2.076734e+002 9.714451e-014
      endloop
   endfacet
   facet normal 9.996017e-001 -2.822289e-002 0.000000e+000
      outer loop
         vertex 1.330585e+002 1.972409e+002 7.620000e+001
         vertex 1.334959e+002 2.076734e+002 9.714451e-014
         vertex 1.334959e+002 2.076734e+002 7.620000e+001
      endloop
   endfacet
   facet normal 9.996955e-001 2.467478e-002 0.000000e+000
      outer loop
         vertex 1.334959e+002 2.076734e+002 7.620000e+001
         vertex 1.334959e+002 2.076734e+002 9.714451e-014
         vertex 1.331282e+002 2.174599e+002 1.110223e-013
      endloop
   endfacet
   facet normal 9.986404e-001 5.212891e-002 0.000000e+000
      outer loop
         vertex 1.334959e+002 2.076734e+002 7.620000e+001
         vertex 1.331282e+002 2.174599e+002 1.110223e-013
         vertex 1.331282e+002 2.174599e+002 7.620000e+001
      endloop
   endfacet
   facet normal 9.940947e-001 1.085157e-001 0.000000e+000
      outer loop
         vertex 1.331282e+002 2.174599e+002 7.620000e+001
         vertex 1.331282e+002 2.174599e+002 1.110223e-013
         vertex 1.319860e+002 2.267256e+002 9.714451e-014
      endloop
   endfacet
   facet normal 9.905100e-001 1.374409e-001 0.000000e+000
      outer loop
         vertex 1.331282e+002 2.174599e+002 7.620000e+001
         vertex 1.319860e+002 2.267256e+002 9.714451e-014
         vertex 1.319860e+002 2.267256e+002 7.620000e+001
      endloop
   endfacet
   facet normal 9.805961e-001 1.960393e-001 0.000000e+000
      outer loop
         vertex 1.319860e+002 2.267256e+002 7.620000e+001
         vertex 1.319860e+002 2.267256e+002 9.714451e-014
         vertex 1.300775e+002 2.355874e+002 1.249001e-013
      endloop
   endfacet
   facet normal 9.741967e-001 2.257007e-001 0.000000e+000
      outer loop
         vertex 1.319860e+002 2.267256e+002 7.620000e+001
         vertex 1.300775e+002 2.355874e+002 1.249001e-013
         vertex 1.300775e+002 2.355874e+002 7.620000e+001
      endloop
   endfacet
   facet normal 9.575468e-001 2.882780e-001 0.000000e+000
      outer loop
         vertex 1.300775e+002 2.355874e+002 7.620000e+001
         vertex 1.300775e+002 2.355874e+002 1.249001e-013
         vertex 1.270776e+002 2.449722e+002 1.110223e-013
      endloop
   endfacet
   facet normal 9.470366e-001 3.211255e-001 0.000000e+000
      outer loop
         vertex 1.300775e+002 2.355874e+002 7.620000e+001
         vertex 1.270776e+002 2.449722e+002 1.110223e-013
         vertex 1.270776e+002 2.449722e+002 7.620000e+001
      endloop
   endfacet
   facet normal 9.231457e-001 3.844503e-001 0.000000e+000
      outer loop
         vertex 1.270776e+002 2.449722e+002 7.620000e+001
         vertex 1.270776e+002 2.449722e+002 1.110223e-013
         vertex 1.233253e+002 2.535771e+002 1.110223e-013
      endloop
   endfacet
   facet normal 9.098412e-001 4.149565e-001 0.000000e+000
      outer loop
         vertex 1.270776e+002 2.449722e+002 7.620000e+001
         vertex 1.233253e+002 2.535771e+002 1.110223e-013
         vertex 1.233253e+002 2.535771e+002 7.620000e+001
      endloop
   endfacet
   facet normal 8.801380e-001 4.747180e-001 0.000000e+000
      outer loop
         vertex 1.233253e+002 2.535771e+002 7.620000e+001
         vertex 1.233253e+002 2.535771e+002 1.110223e-013
         vertex 1.186198e+002 2.619556e+002 1.110223e-013
      endloop
   endfacet
   facet normal 8.637236e-001 5.039657e-001 0.000000e+000
      outer loop
         vertex 1.233253e+002 2.535771e+002 7.620000e+001
         vertex 1.186198e+002 2.619556e+002 1.110223e-013
         vertex 1.186198e+002 2.619556e+002 7.620000e+001
      endloop
   endfacet
   facet normal 8.285804e-001 5.598702e-001 0.000000e+000
      outer loop
         vertex 1.186198e+002 2.619556e+002 7.620000e+001
         vertex 1.186198e+002 2.619556e+002 1.110223e-013
         vertex 1.130392e+002 2.699235e+002 1.249001e-013
      endloop
   endfacet
   facet normal 8.099051e-001 5.865609e-001 0.000000e+000
      outer loop
         vertex 1.186198e+002 2.619556e+002 7.620000e+001
         vertex 1.130392e+002 2.699235e+002 1.249001e-013
         vertex 1.130392e+002 2.699235e+002 7.620000e+001
      endloop
   endfacet
   facet normal 7.709900e-001 6.368472e-001 0.000000e+000
      outer loop
         vertex 1.130392e+002 2.699235e+002 7.620000e+001
         vertex 1.130392e+002 2.699235e+002 1.249001e-013
         vertex 1.065678e+002 2.775053e+002 1.249001e-013
      endloop
   endfacet
   facet normal 7.508252e-001 6.605010e-001 0.000000e+000
      outer loop
         vertex 1.130392e+002 2.699235e+002 7.620000e+001
         vertex 1.065678e+002 2.775053e+002 1.249001e-013
         vertex 1.065678e+002 2.775053e+002 7.620000e+001
      endloop
   endfacet
   facet normal 7.095416e-001 7.046636e-001 0.000000e+000
      outer loop
         vertex 1.065678e+002 2.775053e+002 7.620000e+001
         vertex 1.065678e+002 2.775053e+002 1.249001e-013
         vertex 9.914115e+001 2.847548e+002 1.110223e-013
      endloop
   endfacet
   facet normal 6.884955e-001 7.252406e-001 0.000000e+000
      outer loop
         vertex 1.065678e+002 2.775053e+002 7.620000e+001
         vertex 9.914115e+001 2.847548e+002 1.110223e-013
         vertex 9.914115e+001 2.847548e+002 7.620000e+001
      endloop
   endfacet
   facet normal 6.460826e-001 7.632676e-001 0.000000e+000
      outer loop
         vertex 9.914115e+001 2.847548e+002 7.620000e+001
         vertex 9.914115e+001 2.847548e+002 1.110223e-013
         vertex 9.068051e+001 2.917057e+002 1.110223e-013
      endloop
   endfacet
   facet normal 6.247860e-001 7.807961e-001 0.000000e+000
      outer loop
         vertex 9.914115e+001 2.847548e+002 7.620000e+001
         vertex 9.068051e+001 2.917057e+002 1.110223e-013
         vertex 9.068051e+001 2.917057e+002 7.620000e+001
      endloop
   endfacet
   facet normal 5.824611e-001 8.128586e-001 0.000000e+000
      outer loop
         vertex 9.068051e+001 2.917057e+002 7.620000e+001
         vertex 9.068051e+001 2.917057e+002 1.110223e-013
         vertex 8.108403e+001 2.983845e+002 1.110223e-013
      endloop
   endfacet
   facet normal 5.614977e-001 8.274783e-001 0.000000e+000
      outer loop
         vertex 9.068051e+001 2.917057e+002 7.620000e+001
         vertex 8.108403e+001 2.983845e+002 1.110223e-013
         vertex 8.108403e+001 2.983845e+002 7.620000e+001
      endloop
   endfacet
   facet normal 5.202415e-001 8.540192e-001 0.000000e+000
      outer loop
         vertex 8.108403e+001 2.983845e+002 7.620000e+001
         vertex 8.108403e+001 2.983845e+002 1.110223e-013
         vertex 7.020649e+001 3.048216e+002 1.110223e-013
      endloop
   endfacet
   facet normal 5.000026e-001 8.660239e-001 0.000000e+000
      outer loop
         vertex 8.108403e+001 2.983845e+002 7.620000e+001
         vertex 7.020649e+001 3.048216e+002 1.110223e-013
         vertex 7.020649e+001 3.048216e+002 7.620000e+001
      endloop
   endfacet
   facet normal 4.605569e-001 8.876302e-001 0.000000e+000
      outer loop
         vertex 7.020649e+001 3.048216e+002 7.620000e+001
         vertex 7.020649e+001 3.048216e+002 1.110223e-013
         vertex 5.788525e+001 3.110323e+002 9.714451e-014
      endloop
   endfacet
   facet normal 4.413947e-001 8.973131e-001 0.000000e+000
      outer loop
         vertex 7.020649e+001 3.048216e+002 7.620000e+001
         vertex 5.788525e+001 3.110323e+002 9.714451e-014
         vertex 5.788525e+001 3.110323e+002 7.620000e+001
      endloop
   endfacet
   facet normal 4.042939e-001 9.146292e-001 0.000000e+000
      outer loop
         vertex 5.788525e+001 3.110323e+002 7.620000e+001
         vertex 5.788525e+001 3.110323e+002 9.714451e-014
         vertex 4.391626e+001 3.170288e+002 9.714451e-014
      endloop
   endfacet
   facet normal 3.863894e-001 9.223357e-001 0.000000e+000
      outer loop
         vertex 5.788525e+001 3.110323e+002 7.620000e+001
         vertex 4.391626e+001 3.170288e+002 9.714451e-014
         vertex 4.391626e+001 3.170288e+002 7.620000e+001
      endloop
   endfacet
   facet normal 3.519459e-001 9.360203e-001 0.000000e+000
      outer loop
         vertex 4.391626e+001 3.170288e+002 7.620000e+001
         vertex 4.391626e+001 3.170288e+002 9.714451e-014
         vertex 2.809623e+001 3.228024e+002 9.714451e-014
      endloop
   endfacet
   facet normal 3.354330e-001 9.420641e-001 0.000000e+000
      outer loop
         vertex 4.391626e+001 3.170288e+002 7.620000e+001
         vertex 2.809623e+001 3.228024e+002 9.714451e-014
         vertex 2.809623e+001 3.228024e+002 7.620000e+001
      endloop
   endfacet
   facet normal 3.070391e-001 9.516969e-001 0.000000e+000
      outer loop
         vertex 2.809623e+001 3.228024e+002 7.620000e+001
         vertex 2.809623e+001 3.228024e+002 9.714451e-014
         vertex 1.439328e+001 3.271217e+002 1.110223e-013
      endloop
   endfacet
   facet normal 2.952075e-001 9.554332e-001 0.000000e+000
      outer loop
         vertex 2.809623e+001 3.228024e+002 7.620000e+001
         vertex 1.439328e+001 3.271217e+002 1.110223e-013
         vertex 1.439328e+001 3.271217e+002 7.620000e+001
      endloop
   endfacet
   facet normal -9.590217e-001 2.833324e-001 0.000000e+000
      outer loop
         vertex 0.000000e+000 2.784034e+002 7.620000e+001
         vertex 1.439328e+001 3.271217e+002 7.620000e+001
         vertex 0.000000e+000 2.784034e+002 2.775558e-014
      endloop
   endfacet
   facet normal -9.590217e-001 2.833324e-001 0.000000e+000
      outer loop
         vertex 0.000000e+000 2.784034e+002 2.775558e-014
         vertex 1.439328e+001 3.271217e+002 7.620000e+001
         vertex 1.439328e+001 3.271217e+002 2.775558e-014
      endloop
   endfacet
   facet normal -3.006764e-001 -9.537262e-001 0.000000e+000
      outer loop
         vertex 0.000000e+000 2.784034e+002 7.620000e+001
         vertex 0.000000e+000 2.784034e+002 2.775558e-014
         vertex 1.663882e+001 2.730146e+002 2.775558e-014
      endloop
   endfacet
   facet normal -3.179272e-001 -9.481151e-001 0.000000e+000
      outer loop
         vertex 0.000000e+000 2.784034e+002 7.620000e+001
         vertex 1.663882e+001 2.730146e+002 2.775558e-014
         vertex 1.663882e+001 2.730146e+002 7.620000e+001
      endloop
   endfacet
   facet normal -3.548112e-001 -9.349380e-001 0.000000e+000
      outer loop
         vertex 1.663882e+001 2.730146e+002 7.620000e+001
         vertex 1.663882e+001 2.730146e+002 2.775558e-014
         vertex 3.088889e+001 2.674591e+002 1.387779e-014
      endloop
   endfacet
   facet normal -3.744064e-001 -9.272647e-001 0.000000e+000
      outer loop
         vertex 1.663882e+001 2.730146e+002 7.620000e+001
         vertex 3.088889e+001 2.674591e+002 1.387779e-014
         vertex 3.088889e+001 2.674591e+002 7.620000e+001
      endloop
   endfacet
   facet normal -4.158014e-001 -9.094554e-001 0.000000e+000
      outer loop
         vertex 3.088889e+001 2.674591e+002 7.620000e+001
         vertex 3.088889e+001 2.674591e+002 1.387779e-014
         vertex 4.275699e+001 2.618846e+002 2.775558e-014
      endloop
   endfacet
   facet normal -4.375479e-001 -8.991951e-001 0.000000e+000
      outer loop
         vertex 3.088889e+001 2.674591e+002 7.620000e+001
         vertex 4.275699e+001 2.618846e+002 2.775558e-014
         vertex 4.275699e+001 2.618846e+002 7.620000e+001
      endloop
   endfacet
   facet normal -4.832993e-001 -8.754552e-001 0.000000e+000
      outer loop
         vertex 4.275699e+001 2.618846e+002 7.620000e+001
         vertex 4.275699e+001 2.618846e+002 2.775558e-014
         vertex 5.255090e+001 2.563258e+002 2.775558e-014
      endloop
   endfacet
   facet normal -5.072215e-001 -8.618158e-001 0.000000e+000
      outer loop
         vertex 4.275699e+001 2.618846e+002 7.620000e+001
         vertex 5.255090e+001 2.563258e+002 2.775558e-014
         vertex 5.255090e+001 2.563258e+002 7.620000e+001
      endloop
   endfacet
   facet normal -5.570875e-001 -8.304538e-001 0.000000e+000
      outer loop
         vertex 5.255090e+001 2.563258e+002 7.620000e+001
         vertex 5.255090e+001 2.563258e+002 2.775558e-014
         vertex 6.050443e+001 2.508332e+002 2.775558e-014
      endloop
   endfacet
   facet normal -5.829096e-001 -8.125370e-001 0.000000e+000
      outer loop
         vertex 5.255090e+001 2.563258e+002 7.620000e+001
         vertex 6.050443e+001 2.508332e+002 2.775558e-014
         vertex 6.050443e+001 2.508332e+002 7.620000e+001
      endloop
   endfacet
   facet normal -6.359572e-001 -7.717243e-001 0.000000e+000
      outer loop
         vertex 6.050443e+001 2.508332e+002 7.620000e+001
         vertex 6.050443e+001 2.508332e+002 2.775558e-014
         vertex 6.685057e+001 2.454369e+002 2.775558e-014
      endloop
   endfacet
   facet normal -6.630134e-001 -7.486075e-001 0.000000e+000
      outer loop
         vertex 6.050443e+001 2.508332e+002 7.620000e+001
         vertex 6.685057e+001 2.454369e+002 2.775558e-014
         vertex 6.685057e+001 2.454369e+002 7.620000e+001
      endloop
   endfacet
   facet normal -7.174038e-001 -6.966575e-001 0.000000e+000
      outer loop
         vertex 6.685057e+001 2.454369e+002 7.620000e+001
         vertex 6.685057e+001 2.454369e+002 2.775558e-014
         vertex 7.182391e+001 2.401317e+002 1.387779e-014
      endloop
   endfacet
   facet normal -7.445222e-001 -6.675976e-001 0.000000e+000
      outer loop
         vertex 6.685057e+001 2.454369e+002 7.620000e+001
         vertex 7.182391e+001 2.401317e+002 1.387779e-014
         vertex 7.182391e+001 2.401317e+002 7.620000e+001
      endloop
   endfacet
   facet normal -7.974518e-001 -6.033826e-001 0.000000e+000
      outer loop
         vertex 7.182391e+001 2.401317e+002 7.620000e+001
         vertex 7.182391e+001 2.401317e+002 1.387779e-014
         vertex 7.565325e+001 2.348537e+002 2.775558e-014
      endloop
   endfacet
   facet normal -8.230138e-001 -5.680214e-001 0.000000e+000
      outer loop
         vertex 7.182391e+001 2.401317e+002 7.620000e+001
         vertex 7.565325e+001 2.348537e+002 2.775558e-014
         vertex 7.565325e+001 2.348537e+002 7.620000e+001
      endloop
   endfacet
   facet normal -8.711946e-001 -4.909378e-001 0.000000e+000
      outer loop
         vertex 7.565325e+001 2.348537e+002 7.620000e+001
         vertex 7.565325e+001 2.348537e+002 2.775558e-014
         vertex 7.865390e+001 2.292273e+002 1.387779e-014
      endloop
   endfacet
   facet normal -8.935171e-001 -4.490292e-001 0.000000e+000
      outer loop
         vertex 7.565325e+001 2.348537e+002 7.620000e+001
         vertex 7.865390e+001 2.292273e+002 1.387779e-014
         vertex 7.865390e+001 2.292273e+002 7.620000e+001
      endloop
   endfacet
   facet normal -9.320703e-001 -3.622776e-001 0.000000e+000
      outer loop
         vertex 7.865390e+001 2.292273e+002 7.620000e+001
         vertex 7.865390e+001 2.292273e+002 1.387779e-014
         vertex 8.074139e+001 2.234472e+002 2.775558e-014
      endloop
   endfacet
   facet normal -9.482828e-001 -3.174266e-001 0.000000e+000
      outer loop
         vertex 7.865390e+001 2.292273e+002 7.620000e+001
         vertex 8.074139e+001 2.234472e+002 2.775558e-014
         vertex 8.074139e+001 2.234472e+002 7.620000e+001
      endloop
   endfacet
   facet normal -9.732997e-001 -2.295381e-001 0.000000e+000
      outer loop
         vertex 8.074139e+001 2.234472e+002 7.620000e+001
         vertex 8.074139e+001 2.234472e+002 2.775558e-014
         vertex 8.207546e+001 2.171007e+002 2.775558e-014
      endloop
   endfacet
   facet normal -9.824370e-001 -1.865948e-001 0.000000e+000
      outer loop
         vertex 8.074139e+001 2.234472e+002 7.620000e+001
         vertex 8.207546e+001 2.171007e+002 2.775558e-014
         vertex 8.207546e+001 2.171007e+002 7.620000e+001
      endloop
   endfacet
   facet normal -9.945527e-001 -1.042356e-001 0.000000e+000
      outer loop
         vertex 8.207546e+001 2.171007e+002 7.620000e+001
         vertex 8.207546e+001 2.171007e+002 2.775558e-014
         vertex 8.267367e+001 2.098510e+002 4.163336e-014
      endloop
   endfacet
   facet normal -9.978936e-001 -6.487215e-002 0.000000e+000
      outer loop
         vertex 8.207546e+001 2.171007e+002 7.620000e+001
         vertex 8.267367e+001 2.098510e+002 4.163336e-014
         vertex 8.267367e+001 2.098510e+002 7.620000e+001
      endloop
   endfacet
   facet normal -9.999620e-001 8.716637e-003 0.000000e+000
      outer loop
         vertex 8.267367e+001 2.098510e+002 7.620000e+001
         vertex 8.267367e+001 2.098510e+002 4.163336e-014
         vertex 8.243351e+001 2.015055e+002 4.163336e-014
      endloop
   endfacet
   facet normal -9.990780e-001 4.293211e-002 0.000000e+000
      outer loop
         vertex 8.267367e+001 2.098510e+002 7.620000e+001
         vertex 8.243351e+001 2.015055e+002 4.163336e-014
         vertex 8.243351e+001 2.015055e+002 7.620000e+001
      endloop
   endfacet
   facet normal -9.945674e-001 1.040949e-001 0.000000e+000
      outer loop
         vertex 8.243351e+001 2.015055e+002 7.620000e+001
         vertex 8.243351e+001 2.015055e+002 4.163336e-014
         vertex 8.127671e+001 1.919465e+002 2.775558e-014
      endloop
   endfacet
   facet normal -9.913724e-001 1.310755e-001 0.000000e+000
      outer loop
         vertex 8.243351e+001 2.015055e+002 7.620000e+001
         vertex 8.127671e+001 1.919465e+002 2.775558e-014
         vertex 8.127671e+001 1.919465e+002 7.620000e+001
      endloop
   endfacet
   facet normal -9.839199e-001 1.786103e-001 0.000000e+000
      outer loop
         vertex 8.127671e+001 1.919465e+002 7.620000e+001
         vertex 8.127671e+001 1.919465e+002 2.775558e-014
         vertex 7.907756e+001 1.806865e+002 4.163336e-014
      endloop
   endfacet
   facet normal -9.799565e-001 1.992115e-001 0.000000e+000
      outer loop
         vertex 8.127671e+001 1.919465e+002 7.620000e+001
         vertex 7.907756e+001 1.806865e+002 4.163336e-014
         vertex 7.907756e+001 1.806865e+002 7.620000e+001
      endloop
   endfacet
   facet normal -9.720790e-001 2.346536e-001 0.000000e+000
      outer loop
         vertex 7.907756e+001 1.806865e+002 7.620000e+001
         vertex 7.907756e+001 1.806865e+002 4.163336e-014
         vertex 7.480648e+001 1.638629e+002 2.775558e-014
      endloop
   endfacet
   facet normal -9.683646e-001 2.495394e-001 0.000000e+000
      outer loop
         vertex 7.907756e+001 1.806865e+002 7.620000e+001
         vertex 7.480648e+001 1.638629e+002 2.775558e-014
         vertex 7.480648e+001 1.638629e+002 7.620000e+001
      endloop
   endfacet
   facet normal -9.644063e-001 2.644251e-001 0.000000e+000
      outer loop
         vertex 7.480648e+001 1.638629e+002 7.620000e+001
         vertex 7.480648e+001 1.638629e+002 2.775558e-014
         vertex 6.932198e+001 1.441926e+002 4.163336e-014
      endloop
   endfacet
   facet normal -9.643893e-001 2.644871e-001 0.000000e+000
      outer loop
         vertex 7.480648e+001 1.638629e+002 7.620000e+001
         vertex 6.932198e+001 1.441926e+002 4.163336e-014
         vertex 6.932198e+001 1.441926e+002 7.620000e+001
      endloop
   endfacet
   facet normal -9.675735e-001 2.525898e-001 0.000000e+000
      outer loop
         vertex 6.932198e+001 1.441926e+002 7.620000e+001
         vertex 6.932198e+001 1.441926e+002 4.163336e-014
         vertex 6.509720e+001 1.277757e+002 1.387779e-014
      endloop
   endfacet
   facet normal -9.706268e-001 2.405900e-001 0.000000e+000
      outer loop
         vertex 6.932198e+001 1.441926e+002 7.620000e+001
         vertex 6.509720e+001 1.277757e+002 1.387779e-014
         vertex 6.509720e+001 1.277757e+002 7.620000e+001
      endloop
   endfacet
   facet normal -9.773766e-001 2.115067e-001 0.000000e+000
      outer loop
         vertex 6.509720e+001 1.277757e+002 7.620000e+001
         vertex 6.509720e+001 1.277757e+002 1.387779e-014
         vertex 6.239955e+001 1.148699e+002 2.775558e-014
      endloop
   endfacet
   facet normal -9.809246e-001 1.943884e-001 0.000000e+000
      outer loop
         vertex 6.509720e+001 1.277757e+002 7.620000e+001
         vertex 6.239955e+001 1.148699e+002 2.775558e-014
         vertex 6.239955e+001 1.148699e+002 7.620000e+001
      endloop
   endfacet
   facet normal -9.877332e-001 1.561505e-001 0.000000e+000
      outer loop
         vertex 6.239955e+001 1.148699e+002 7.620000e+001
         vertex 6.239955e+001 1.148699e+002 2.775558e-014
         vertex 6.067596e+001 1.032837e+002 4.163336e-014
      endloop
   endfacet
   facet normal -9.908450e-001 1.350040e-001 0.000000e+000
      outer loop
         vertex 6.239955e+001 1.148699e+002 7.620000e+001
         vertex 6.067596e+001 1.032837e+002 4.163336e-014
         vertex 6.067596e+001 1.032837e+002 7.620000e+001
      endloop
   endfacet
   facet normal -9.960091e-001 8.925220e-002 0.000000e+000
      outer loop
         vertex 6.067596e+001 1.032837e+002 7.620000e+001
         vertex 6.067596e+001 1.032837e+002 4.163336e-014
         vertex 5.984572e+001 9.268639e+001 1.387779e-014
      endloop
   endfacet
   facet normal -9.979094e-001 6.462946e-002 0.000000e+000
      outer loop
         vertex 6.067596e+001 1.032837e+002 7.620000e+001
         vertex 5.984572e+001 9.268639e+001 1.387779e-014
         vertex 5.984572e+001 9.268639e+001 7.620000e+001
      endloop
   endfacet
   facet normal -9.999146e-001 1.306331e-002 0.000000e+000
      outer loop
         vertex 5.984572e+001 9.268639e+001 7.620000e+001
         vertex 5.984572e+001 9.268639e+001 1.387779e-014
         vertex 5.984044e+001 8.277003e+001 2.775558e-014
      endloop
   endfacet
   facet normal -9.999036e-001 -1.388472e-002 0.000000e+000
      outer loop
         vertex 5.984572e+001 9.268639e+001 7.620000e+001
         vertex 5.984044e+001 8.277003e+001 2.775558e-014
         vertex 5.984044e+001 8.277003e+001 7.620000e+001
      endloop
   endfacet
   facet normal -9.975731e-001 -6.962667e-002 0.000000e+000
      outer loop
         vertex 5.984044e+001 8.277003e+001 7.620000e+001
         vertex 5.984044e+001 8.277003e+001 2.775558e-014
         vertex 6.061956e+001 7.344225e+001 2.775558e-014
      endloop
   endfacet
   facet normal -9.951453e-001 -9.841615e-002 0.000000e+000
      outer loop
         vertex 5.984044e+001 8.277003e+001 7.620000e+001
         vertex 6.061956e+001 7.344225e+001 2.775558e-014
         vertex 6.061956e+001 7.344225e+001 7.620000e+001
      endloop
   endfacet
   facet normal -9.877663e-001 -1.559420e-001 0.000000e+000
      outer loop
         vertex 6.061956e+001 7.344225e+001 7.620000e+001
         vertex 6.061956e+001 7.344225e+001 2.775558e-014
         vertex 6.208352e+001 6.494574e+001 2.775558e-014
      endloop
   endfacet
   facet normal -9.827994e-001 -1.846764e-001 0.000000e+000
      outer loop
         vertex 6.061956e+001 7.344225e+001 7.620000e+001
         vertex 6.208352e+001 6.494574e+001 2.775558e-014
         vertex 6.208352e+001 6.494574e+001 7.620000e+001
      endloop
   endfacet
   facet normal -9.698368e-001 -2.437550e-001 0.000000e+000
      outer loop
         vertex 6.208352e+001 6.494574e+001 7.620000e+001
         vertex 6.208352e+001 6.494574e+001 2.775558e-014
         vertex 6.435694e+001 5.645495e+001 2.775558e-014
      endloop
   endfacet
   facet normal -9.617096e-001 -2.740706e-001 0.000000e+000
      outer loop
         vertex 6.208352e+001 6.494574e+001 7.620000e+001
         vertex 6.435694e+001 5.645495e+001 2.775558e-014
         vertex 6.435694e+001 5.645495e+001 7.620000e+001
      endloop
   endfacet
   facet normal -9.413529e-001 -3.374237e-001 0.000000e+000
      outer loop
         vertex 6.435694e+001 5.645495e+001 7.620000e+001
         vertex 6.435694e+001 5.645495e+001 2.775558e-014
         vertex 6.773402e+001 4.752866e+001 1.387779e-014
      endloop
   endfacet
   facet normal -9.288791e-001 -3.703831e-001 0.000000e+000
      outer loop
         vertex 6.435694e+001 5.645495e+001 7.620000e+001
         vertex 6.773402e+001 4.752866e+001 1.387779e-014
         vertex 6.773402e+001 4.752866e+001 7.620000e+001
      endloop
   endfacet
   facet normal -9.007255e-001 -4.343888e-001 0.000000e+000
      outer loop
         vertex 6.773402e+001 4.752866e+001 7.620000e+001
         vertex 6.773402e+001 4.752866e+001 1.387779e-014
         vertex 7.196761e+001 3.912761e+001 4.163336e-014
      endloop
   endfacet
   facet normal -8.850752e-001 -4.654481e-001 0.000000e+000
      outer loop
         vertex 6.773402e+001 4.752866e+001 7.620000e+001
         vertex 7.196761e+001 3.912761e+001 4.163336e-014
         vertex 7.196761e+001 3.912761e+001 7.620000e+001
      endloop
   endfacet
   facet normal -8.511624e-001 -5.249024e-001 0.000000e+000
      outer loop
         vertex 7.196761e+001 3.912761e+001 7.620000e+001
         vertex 7.196761e+001 3.912761e+001 4.163336e-014
         vertex 7.704799e+001 3.119887e+001 2.775558e-014
      endloop
   endfacet
   facet normal -8.329607e-001 -5.533321e-001 0.000000e+000
      outer loop
         vertex 7.196761e+001 3.912761e+001 7.620000e+001
         vertex 7.704799e+001 3.119887e+001 2.775558e-014
         vertex 7.704799e+001 3.119887e+001 7.620000e+001
      endloop
   endfacet
   facet normal -7.944618e-001 -6.073141e-001 0.000000e+000
      outer loop
         vertex 7.704799e+001 3.119887e+001 7.620000e+001
         vertex 7.704799e+001 3.119887e+001 2.775558e-014
         vertex 8.300826e+001 2.366960e+001 2.775558e-014
      endloop
   endfacet
   facet normal -7.742256e-001 -6.329098e-001 0.000000e+000
      outer loop
         vertex 7.704799e+001 3.119887e+001 7.620000e+001
         vertex 8.300826e+001 2.366960e+001 2.775558e-014
         vertex 8.300826e+001 2.366960e+001 7.620000e+001
      endloop
   endfacet
   facet normal -7.324808e-001 -6.807877e-001 0.000000e+000
      outer loop
         vertex 8.300826e+001 2.366960e+001 7.620000e+001
         vertex 8.300826e+001 2.366960e+001 2.775558e-014
         vertex 8.987506e+001 1.651728e+001 2.775558e-014
      endloop
   endfacet
   facet normal -7.110519e-001 -7.031395e-001 0.000000e+000
      outer loop
         vertex 8.300826e+001 2.366960e+001 7.620000e+001
         vertex 8.987506e+001 1.651728e+001 2.775558e-014
         vertex 8.987506e+001 1.651728e+001 7.620000e+001
      endloop
   endfacet
   facet normal -6.675895e-001 -7.445296e-001 0.000000e+000
      outer loop
         vertex 8.987506e+001 1.651728e+001 7.620000e+001
         vertex 8.987506e+001 1.651728e+001 2.775558e-014
         vertex 9.771966e+001 9.698743e+000 2.775558e-014
      endloop
   endfacet
   facet normal -6.456323e-001 -7.636484e-001 0.000000e+000
      outer loop
         vertex 8.987506e+001 1.651728e+001 7.620000e+001
         vertex 9.771966e+001 9.698743e+000 2.775558e-014
         vertex 9.771966e+001 9.698743e+000 7.620000e+001
      endloop
   endfacet
   facet normal -6.017740e-001 -7.986664e-001 0.000000e+000
      outer loop
         vertex 9.771966e+001 9.698743e+000 7.620000e+001
         vertex 9.771966e+001 9.698743e+000 2.775558e-014
         vertex 1.066288e+002 3.186258e+000 2.775558e-014
      endloop
   endfacet
   facet normal -5.799447e-001 -8.146558e-001 0.000000e+000
      outer loop
         vertex 9.771966e+001 9.698743e+000 7.620000e+001
         vertex 1.066288e+002 3.186258e+000 2.775558e-014
         vertex 1.066288e+002 3.186258e+000 7.620000e+001
      endloop
   endfacet
   facet normal -5.469808e-001 -8.371452e-001 0.000000e+000
      outer loop
         vertex 1.066288e+002 3.186258e+000 7.620000e+001
         vertex 1.066288e+002 3.186258e+000 2.775558e-014
         vertex 1.115774e+002 0.000000e+000 2.775558e-014
      endloop
   endfacet
   facet normal -5.361618e-001 -8.441152e-001 0.000000e+000
      outer loop
         vertex 1.066288e+002 3.186258e+000 7.620000e+001
         vertex 1.115774e+002 0.000000e+000 2.775558e-014
         vertex 1.115774e+002 0.000000e+000 7.620000e+001
      endloop
   endfacet
   facet normal 8.509443e-001 -5.252559e-001 0.000000e+000
      outer loop
         vertex 1.382604e+002 4.322797e+001 7.620000e+001
         vertex 1.115774e+002 0.000000e+000 7.620000e+001
         vertex 1.382604e+002 4.322797e+001 0.000000e+000
      endloop
   endfacet
   facet normal 8.509443e-001 -5.252559e-001 0.000000e+000
      outer loop
         vertex 1.382604e+002 4.322797e+001 0.000000e+000
         vertex 1.115774e+002 0.000000e+000 7.620000e+001
         vertex 1.115774e+002 0.000000e+000 0.000000e+000
      endloop
   endfacet
   facet normal 0.000000e+000 0.000000e+000 1.000000e+000
      outer loop
         vertex 7.182391e+001 2.401317e+002 7.620000e+001
         vertex 7.565325e+001 2.348537e+002 7.620000e+001
         vertex 1.186198e+002 2.619556e+002 7.620000e+001
      endloop
   endfacet
   facet normal 0.000000e+000 0.000000e+000 1.000000e+000
      outer loop
         vertex 1.119764e+002 7.465047e+001 7.620000e+001
         vertex 6.435694e+001 5.645495e+001 7.620000e+001
         vertex 1.137956e+002 6.901740e+001 7.620000e+001
      endloop
   endfacet
   facet normal 0.000000e+000 0.000000e+000 1.000000e+000
      outer loop
         vertex 1.137956e+002 6.901740e+001 7.620000e+001
         vertex 6.435694e+001 5.645495e+001 7.620000e+001
         vertex 6.773402e+001 4.752866e+001 7.620000e+001
      endloop
   endfacet
   facet normal 0.000000e+000 0.000000e+000 1.000000e+000
      outer loop
         vertex 1.137956e+002 6.901740e+001 7.620000e+001
         vertex 6.773402e+001 4.752866e+001 7.620000e+001
         vertex 1.164859e+002 6.362575e+001 7.620000e+001
      endloop
   endfacet
   facet normal 0.000000e+000 0.000000e+000 1.000000e+000
      outer loop
         vertex 1.186198e+002 2.619556e+002 7.620000e+001
         vertex 7.565325e+001 2.348537e+002 7.620000e+001
         vertex 1.233253e+002 2.535771e+002 7.620000e+001
      endloop
   endfacet
   facet normal 0.000000e+000 0.000000e+000 1.000000e+000
      outer loop
         vertex 1.233253e+002 2.535771e+002 7.620000e+001
         vertex 7.565325e+001 2.348537e+002 7.620000e+001
         vertex 7.865390e+001 2.292273e+002 7.620000e+001
      endloop
   endfacet
   facet normal 0.000000e+000 0.000000e+000 1.000000e+000
      outer loop
         vertex 1.233253e+002 2.535771e+002 7.620000e+001
         vertex 7.865390e+001 2.292273e+002 7.620000e+001
         vertex 1.270776e+002 2.449722e+002 7.620000e+001
      endloop
   endfacet
   facet normal 0.000000e+000 0.000000e+000 1.000000e+000
      outer loop
         vertex 1.270776e+002 2.449722e+002 7.620000e+001
         vertex 7.865390e+001 2.292273e+002 7.620000e+001
         vertex 8.074139e+001 2.234472e+002 7.620000e+001
      endloop
   endfacet
   facet normal 0.000000e+000 0.000000e+000 1.000000e+000
      outer loop
         vertex 1.270776e+002 2.449722e+002 7.620000e+001
         vertex 8.074139e+001 2.234472e+002 7.620000e+001
         vertex 1.300775e+002 2.355874e+002 7.620000e+001
      endloop
   endfacet
   facet normal 0.000000e+000 0.000000e+000 1.000000e+000
      outer loop
         vertex 1.115774e+002 0.000000e+000 7.620000e+001
         vertex 1.382604e+002 4.322797e+001 7.620000e+001
         vertex 1.066288e+002 3.186258e+000 7.620000e+001
      endloop
   endfacet
   facet normal 0.000000e+000 0.000000e+000 1.000000e+000
      outer loop
         vertex 1.066288e+002 3.186258e+000 7.620000e+001
         vertex 1.382604e+002 4.322797e+001 7.620000e+001
         vertex 1.305373e+002 4.852196e+001 7.620000e+001
      endloop
   endfacet
   facet normal 0.000000e+000 0.000000e+000 1.000000e+000
      outer loop
         vertex 6.773402e+001 4.752866e+001 7.620000e+001
         vertex 7.196761e+001 3.912761e+001 7.620000e+001
         vertex 1.164859e+002 6.362575e+001 7.620000e+001
      endloop
   endfacet
   facet normal 0.000000e+000 0.000000e+000 1.000000e+000
      outer loop
         vertex 1.164859e+002 6.362575e+001 7.620000e+001
         vertex 7.196761e+001 3.912761e+001 7.620000e+001
         vertex 7.704799e+001 3.119887e+001 7.620000e+001
      endloop
   endfacet
   facet normal 0.000000e+000 0.000000e+000 1.000000e+000
      outer loop
         vertex 1.164859e+002 6.362575e+001 7.620000e+001
         vertex 7.704799e+001 3.119887e+001 7.620000e+001
         vertex 1.199617e+002 5.864721e+001 7.620000e+001
      endloop
   endfacet
   facet normal 0.000000e+000 0.000000e+000 1.000000e+000
      outer loop
         vertex 1.199617e+002 5.864721e+001 7.620000e+001
         vertex 7.704799e+001 3.119887e+001 7.620000e+001
         vertex 8.300826e+001 2.366960e+001 7.620000e+001
      endloop
   endfacet
   facet normal 0.000000e+000 0.000000e+000 1.000000e+000
      outer loop
         vertex 1.199617e+002 5.864721e+001 7.620000e+001
         vertex 8.300826e+001 2.366960e+001 7.620000e+001
         vertex 1.245390e+002 5.365825e+001 7.620000e+001
      endloop
   endfacet
   facet normal 0.000000e+000 0.000000e+000 1.000000e+000
      outer loop
         vertex 1.245390e+002 5.365825e+001 7.620000e+001
         vertex 8.300826e+001 2.366960e+001 7.620000e+001
         vertex 8.987506e+001 1.651728e+001 7.620000e+001
      endloop
   endfacet
   facet normal 0.000000e+000 0.000000e+000 1.000000e+000
      outer loop
         vertex 1.245390e+002 5.365825e+001 7.620000e+001
         vertex 8.987506e+001 1.651728e+001 7.620000e+001
         vertex 1.305373e+002 4.852196e+001 7.620000e+001
      endloop
   endfacet
   facet normal 0.000000e+000 0.000000e+000 1.000000e+000
      outer loop
         vertex 1.305373e+002 4.852196e+001 7.620000e+001
         vertex 8.987506e+001 1.651728e+001 7.620000e+001
         vertex 9.771966e+001 9.698743e+000 7.620000e+001
      endloop
   endfacet
   facet normal 0.000000e+000 0.000000e+000 1.000000e+000
      outer loop
         vertex 1.305373e+002 4.852196e+001 7.620000e+001
         vertex 9.771966e+001 9.698743e+000 7.620000e+001
         vertex 1.066288e+002 3.186258e+000 7.620000e+001
      endloop
   endfacet
   facet normal 0.000000e+000 0.000000e+000 1.000000e+000
      outer loop
         vertex 1.186198e+002 2.619556e+002 7.620000e+001
         vertex 1.130392e+002 2.699235e+002 7.620000e+001
         vertex 7.182391e+001 2.401317e+002 7.620000e+001
      endloop
   endfacet
   facet normal 0.000000e+000 0.000000e+000 1.000000e+000
      outer loop
         vertex 7.182391e+001 2.401317e+002 7.620000e+001
         vertex 1.130392e+002 2.699235e+002 7.620000e+001
         vertex 1.065678e+002 2.775053e+002 7.620000e+001
      endloop
   endfacet
   facet normal 0.000000e+000 0.000000e+000 1.000000e+000
      outer loop
         vertex 7.182391e+001 2.401317e+002 7.620000e+001
         vertex 1.065678e+002 2.775053e+002 7.620000e+001
         vertex 6.685057e+001 2.454369e+002 7.620000e+001
      endloop
   endfacet
   facet normal 0.000000e+000 0.000000e+000 1.000000e+000
      outer loop
         vertex 6.685057e+001 2.454369e+002 7.620000e+001
         vertex 1.065678e+002 2.775053e+002 7.620000e+001
         vertex 9.914115e+001 2.847548e+002 7.620000e+001
      endloop
   endfacet
   facet normal 0.000000e+000 0.000000e+000 1.000000e+000
      outer loop
         vertex 6.685057e+001 2.454369e+002 7.620000e+001
         vertex 9.914115e+001 2.847548e+002 7.620000e+001
         vertex 6.050443e+001 2.508332e+002 7.620000e+001
      endloop
   endfacet
   facet normal 0.000000e+000 0.000000e+000 1.000000e+000
      outer loop
         vertex 6.050443e+001 2.508332e+002 7.620000e+001
         vertex 9.914115e+001 2.847548e+002 7.620000e+001
         vertex 9.068051e+001 2.917057e+002 7.620000e+001
      endloop
   endfacet
   facet normal 0.000000e+000 0.000000e+000 1.000000e+000
      outer loop
         vertex 6.050443e+001 2.508332e+002 7.620000e+001
         vertex 9.068051e+001 2.917057e+002 7.620000e+001
         vertex 5.255090e+001 2.563258e+002 7.620000e+001
      endloop
   endfacet
   facet normal 0.000000e+000 0.000000e+000 1.000000e+000
      outer loop
         vertex 5.255090e+001 2.563258e+002 7.620000e+001
         vertex 9.068051e+001 2.917057e+002 7.620000e+001
         vertex 8.108403e+001 2.983845e+002 7.620000e+001
      endloop
   endfacet
   facet normal 0.000000e+000 0.000000e+000 1.000000e+000
      outer loop
         vertex 5.255090e+001 2.563258e+002 7.620000e+001
         vertex 8.108403e+001 2.983845e+002 7.620000e+001
         vertex 4.275699e+001 2.618846e+002 7.620000e+001
      endloop
   endfacet
   facet normal 0.000000e+000 0.000000e+000 1.000000e+000
      outer loop
         vertex 1.300775e+002 2.355874e+002 7.620000e+001
         vertex 8.074139e+001 2.234472e+002 7.620000e+001
         vertex 1.319860e+002 2.267256e+002 7.620000e+001
      endloop
   endfacet
   facet normal 0.000000e+000 0.000000e+000 1.000000e+000
      outer loop
         vertex 1.319860e+002 2.267256e+002 7.620000e+001
         vertex 8.074139e+001 2.234472e+002 7.620000e+001
         vertex 8.207546e+001 2.171007e+002 7.620000e+001
      endloop
   endfacet
   facet normal 0.000000e+000 0.000000e+000 1.000000e+000
      outer loop
         vertex 1.319860e+002 2.267256e+002 7.620000e+001
         vertex 8.207546e+001 2.171007e+002 7.620000e+001
         vertex 1.331282e+002 2.174599e+002 7.620000e+001
      endloop
   endfacet
   facet normal 0.000000e+000 0.000000e+000 1.000000e+000
      outer loop
         vertex 1.331282e+002 2.174599e+002 7.620000e+001
         vertex 8.207546e+001 2.171007e+002 7.620000e+001
         vertex 8.267367e+001 2.098510e+002 7.620000e+001
      endloop
   endfacet
   facet normal 0.000000e+000 0.000000e+000 1.000000e+000
      outer loop
         vertex 1.331282e+002 2.174599e+002 7.620000e+001
         vertex 8.267367e+001 2.098510e+002 7.620000e+001
         vertex 1.334959e+002 2.076734e+002 7.620000e+001
      endloop
   endfacet
   facet normal 0.000000e+000 0.000000e+000 1.000000e+000
      outer loop
         vertex 1.105469e+002 8.836840e+001 7.620000e+001
         vertex 5.984044e+001 8.277003e+001 7.620000e+001
         vertex 1.108709e+002 8.106200e+001 7.620000e+001
      endloop
   endfacet
   facet normal 0.000000e+000 0.000000e+000 1.000000e+000
      outer loop
         vertex 1.108709e+002 8.106200e+001 7.620000e+001
         vertex 5.984044e+001 8.277003e+001 7.620000e+001
         vertex 6.061956e+001 7.344225e+001 7.620000e+001
      endloop
   endfacet
   facet normal 0.000000e+000 0.000000e+000 1.000000e+000
      outer loop
         vertex 1.108709e+002 8.106200e+001 7.620000e+001
         vertex 6.061956e+001 7.344225e+001 7.620000e+001
         vertex 1.119764e+002 7.465047e+001 7.620000e+001
      endloop
   endfacet
   facet normal 0.000000e+000 0.000000e+000 1.000000e+000
      outer loop
         vertex 1.119764e+002 7.465047e+001 7.620000e+001
         vertex 6.061956e+001 7.344225e+001 7.620000e+001
         vertex 6.208352e+001 6.494574e+001 7.620000e+001
      endloop
   endfacet
   facet normal 0.000000e+000 0.000000e+000 1.000000e+000
      outer loop
         vertex 1.119764e+002 7.465047e+001 7.620000e+001
         vertex 6.208352e+001 6.494574e+001 7.620000e+001
         vertex 6.435694e+001 5.645495e+001 7.620000e+001
      endloop
   endfacet
   facet normal 0.000000e+000 0.000000e+000 1.000000e+000
      outer loop
         vertex 8.108403e+001 2.983845e+002 7.620000e+001
         vertex 7.020649e+001 3.048216e+002 7.620000e+001
         vertex 4.275699e+001 2.618846e+002 7.620000e+001
      endloop
   endfacet
   facet normal 0.000000e+000 0.000000e+000 1.000000e+000
      outer loop
         vertex 4.275699e+001 2.618846e+002 7.620000e+001
         vertex 7.020649e+001 3.048216e+002 7.620000e+001
         vertex 5.788525e+001 3.110323e+002 7.620000e+001
      endloop
   endfacet
   facet normal 0.000000e+000 0.000000e+000 1.000000e+000
      outer loop
         vertex 4.275699e+001 2.618846e+002 7.620000e+001
         vertex 5.788525e+001 3.110323e+002 7.620000e+001
         vertex 3.088889e+001 2.674591e+002 7.620000e+001
      endloop
   endfacet
   facet normal 0.000000e+000 0.000000e+000 1.000000e+000
      outer loop
         vertex 3.088889e+001 2.674591e+002 7.620000e+001
         vertex 5.788525e+001 3.110323e+002 7.620000e+001
         vertex 4.391626e+001 3.170288e+002 7.620000e+001
      endloop
   endfacet
   facet normal 0.000000e+000 0.000000e+000 1.000000e+000
      outer loop
         vertex 3.088889e+001 2.674591e+002 7.620000e+001
         vertex 4.391626e+001 3.170288e+002 7.620000e+001
         vertex 1.663882e+001 2.730146e+002 7.620000e+001
      endloop
   endfacet
   facet normal 0.000000e+000 0.000000e+000 1.000000e+000
      outer loop
         vertex 1.663882e+001 2.730146e+002 7.620000e+001
         vertex 4.391626e+001 3.170288e+002 7.620000e+001
         vertex 2.809623e+001 3.228024e+002 7.620000e+001
      endloop
   endfacet
   facet normal 0.000000e+000 0.000000e+000 1.000000e+000
      outer loop
         vertex 1.663882e+001 2.730146e+002 7.620000e+001
         vertex 2.809623e+001 3.228024e+002 7.620000e+001
         vertex 0.000000e+000 2.784034e+002 7.620000e+001
      endloop
   endfacet
   facet normal 0.000000e+000 0.000000e+000 1.000000e+000
      outer loop
         vertex 0.000000e+000 2.784034e+002 7.620000e+001
         vertex 2.809623e+001 3.228024e+002 7.620000e+001
         vertex 1.439328e+001 3.271217e+002 7.620000e+001
      endloop
   endfacet
   facet normal 0.000000e+000 0.000000e+000 1.000000e+000
      outer loop
         vertex 1.334959e+002 2.076734e+002 7.620000e+001
         vertex 8.267367e+001 2.098510e+002 7.620000e+001
         vertex 1.330585e+002 1.972409e+002 7.620000e+001
      endloop
   endfacet
   facet normal 0.000000e+000 0.000000e+000 1.000000e+000
      outer loop
         vertex 1.330585e+002 1.972409e+002 7.620000e+001
         vertex 8.267367e+001 2.098510e+002 7.620000e+001
         vertex 8.243351e+001 2.015055e+002 7.620000e+001
      endloop
   endfacet
   facet normal 0.000000e+000 0.000000e+000 1.000000e+000
      outer loop
         vertex 1.330585e+002 1.972409e+002 7.620000e+001
         vertex 8.243351e+001 2.015055e+002 7.620000e+001
         vertex 1.317674e+002 1.860417e+002 7.620000e+001
      endloop
   endfacet
   facet normal 0.000000e+000 0.000000e+000 1.000000e+000
      outer loop
         vertex 1.317674e+002 1.860417e+002 7.620000e+001
         vertex 8.243351e+001 2.015055e+002 7.620000e+001
         vertex 8.127671e+001 1.919465e+002 7.620000e+001
      endloop
   endfacet
   facet normal 0.000000e+000 0.000000e+000 1.000000e+000
      outer loop
         vertex 1.317674e+002 1.860417e+002 7.620000e+001
         vertex 8.127671e+001 1.919465e+002 7.620000e+001
         vertex 1.295318e+002 1.736408e+002 7.620000e+001
      endloop
   endfacet
   facet normal 0.000000e+000 0.000000e+000 1.000000e+000
      outer loop
         vertex 1.295318e+002 1.736408e+002 7.620000e+001
         vertex 8.127671e+001 1.919465e+002 7.620000e+001
         vertex 7.907756e+001 1.806865e+002 7.620000e+001
      endloop
   endfacet
   facet normal 0.000000e+000 0.000000e+000 1.000000e+000
      outer loop
         vertex 1.295318e+002 1.736408e+002 7.620000e+001
         vertex 7.907756e+001 1.806865e+002 7.620000e+001
         vertex 1.264144e+002 1.602898e+002 7.620000e+001
      endloop
   endfacet
   facet normal 0.000000e+000 0.000000e+000 1.000000e+000
      outer loop
         vertex 1.264144e+002 1.602898e+002 7.620000e+001
         vertex 7.907756e+001 1.806865e+002 7.620000e+001
         vertex 7.480648e+001 1.638629e+002 7.620000e+001
      endloop
   endfacet
   facet normal 0.000000e+000 0.000000e+000 1.000000e+000
      outer loop
         vertex 1.264144e+002 1.602898e+002 7.620000e+001
         vertex 7.480648e+001 1.638629e+002 7.620000e+001
         vertex 1.204326e+002 1.383704e+002 7.620000e+001
      endloop
   endfacet
   facet normal 0.000000e+000 0.000000e+000 1.000000e+000
      outer loop
         vertex 1.204326e+002 1.383704e+002 7.620000e+001
         vertex 7.480648e+001 1.638629e+002 7.620000e+001
         vertex 6.932198e+001 1.441926e+002 7.620000e+001
      endloop
   endfacet
   facet normal 0.000000e+000 0.000000e+000 1.000000e+000
      outer loop
         vertex 1.204326e+002 1.383704e+002 7.620000e+001
         vertex 6.932198e+001 1.441926e+002 7.620000e+001
         vertex 1.151780e+002 1.187704e+002 7.620000e+001
      endloop
   endfacet
   facet normal 0.000000e+000 0.000000e+000 1.000000e+000
      outer loop
         vertex 1.151780e+002 1.187704e+002 7.620000e+001
         vertex 6.932198e+001 1.441926e+002 7.620000e+001
         vertex 6.509720e+001 1.277757e+002 7.620000e+001
      endloop
   endfacet
   facet normal 0.000000e+000 0.000000e+000 1.000000e+000
      outer loop
         vertex 1.151780e+002 1.187704e+002 7.620000e+001
         vertex 6.509720e+001 1.277757e+002 7.620000e+001
         vertex 1.125858e+002 1.069032e+002 7.620000e+001
      endloop
   endfacet
   facet normal 0.000000e+000 0.000000e+000 1.000000e+000
      outer loop
         vertex 1.125858e+002 1.069032e+002 7.620000e+001
         vertex 6.509720e+001 1.277757e+002 7.620000e+001
         vertex 6.239955e+001 1.148699e+002 7.620000e+001
      endloop
   endfacet
   facet normal 0.000000e+000 0.000000e+000 1.000000e+000
      outer loop
         vertex 1.125858e+002 1.069032e+002 7.620000e+001
         vertex 6.239955e+001 1.148699e+002 7.620000e+001
         vertex 1.110844e+002 9.690947e+001 7.620000e+001
      endloop
   endfacet
   facet normal 0.000000e+000 0.000000e+000 1.000000e+000
      outer loop
         vertex 1.110844e+002 9.690947e+001 7.620000e+001
         vertex 6.239955e+001 1.148699e+002 7.620000e+001
         vertex 6.067596e+001 1.032837e+002 7.620000e+001
      endloop
   endfacet
   facet normal 0.000000e+000 0.000000e+000 1.000000e+000
      outer loop
         vertex 1.110844e+002 9.690947e+001 7.620000e+001
         vertex 6.067596e+001 1.032837e+002 7.620000e+001
         vertex 1.105469e+002 8.836840e+001 7.620000e+001
      endloop
   endfacet
   facet normal 0.000000e+000 0.000000e+000 1.000000e+000
      outer loop
         vertex 1.105469e+002 8.836840e+001 7.620000e+001
         vertex 6.067596e+001 1.032837e+002 7.620000e+001
         vertex 5.984572e+001 9.268639e+001 7.620000e+001
      endloop
   endfacet
   facet normal 0.000000e+000 0.000000e+000 1.000000e+000
      outer loop
         vertex 1.105469e+002 8.836840e+001 7.620000e+001
         vertex 5.984572e+001 9.268639e+001 7.620000e+001
         vertex 5.984044e+001 8.277003e+001 7.620000e+001
      endloop
   endfacet
   facet normal 0.000000e+000 0.000000e+000 -1.000000e+000
      outer loop
         vertex 1.108709e+002 8.106200e+001 0.000000e+000
         vertex 1.119764e+002 7.465047e+001 0.000000e+000
         vertex 6.208352e+001 6.494574e+001 0.000000e+000
      endloop
   endfacet
   facet normal 0.000000e+000 0.000000e+000 -1.000000e+000
      outer loop
         vertex 6.208352e+001 6.494574e+001 0.000000e+000
         vertex 1.119764e+002 7.465047e+001 0.000000e+000
         vertex 6.435694e+001 5.645495e+001 0.000000e+000
      endloop
   endfacet
   facet normal 0.000000e+000 0.000000e+000 -1.000000e+000
      outer loop
         vertex 6.435694e+001 5.645495e+001 0.000000e+000
         vertex 1.119764e+002 7.465047e+001 0.000000e+000
         vertex 1.137956e+002 6.901740e+001 0.000000e+000
      endloop
   endfacet
   facet normal 0.000000e+000 0.000000e+000 -1.000000e+000
      outer loop
         vertex 6.435694e+001 5.645495e+001 0.000000e+000
         vertex 1.137956e+002 6.901740e+001 0.000000e+000
         vertex 6.773402e+001 4.752866e+001 0.000000e+000
      endloop
   endfacet
   facet normal 0.000000e+000 0.000000e+000 -1.000000e+000
      outer loop
         vertex 6.773402e+001 4.752866e+001 0.000000e+000
         vertex 1.137956e+002 6.901740e+001 0.000000e+000
         vertex 7.196761e+001 3.912761e+001 0.000000e+000
      endloop
   endfacet
   facet normal 0.000000e+000 0.000000e+000 -1.000000e+000
      outer loop
         vertex 7.196761e+001 3.912761e+001 0.000000e+000
         vertex 1.137956e+002 6.901740e+001 0.000000e+000
         vertex 1.164859e+002 6.362575e+001 0.000000e+000
      endloop
   endfacet
   facet normal 0.000000e+000 0.000000e+000 -1.000000e+000
      outer loop
         vertex 7.196761e+001 3.912761e+001 0.000000e+000
         vertex 1.164859e+002 6.362575e+001 0.000000e+000
         vertex 7.704799e+001 3.119887e+001 0.000000e+000
      endloop
   endfacet
   facet normal 0.000000e+000 0.000000e+000 -1.000000e+000
      outer loop
         vertex 7.704799e+001 3.119887e+001 0.000000e+000
         vertex 1.164859e+002 6.362575e+001 0.000000e+000
         vertex 1.199617e+002 5.864721e+001 0.000000e+000
      endloop
   endfacet
   facet normal 0.000000e+000 0.000000e+000 -1.000000e+000
      outer loop
         vertex 7.704799e+001 3.119887e+001 0.000000e+000
         vertex 1.199617e+002 5.864721e+001 0.000000e+000
         vertex 8.300826e+001 2.366960e+001 0.000000e+000
      endloop
   endfacet
   facet normal 0.000000e+000 0.000000e+000 -1.000000e+000
      outer loop
         vertex 7.865390e+001 2.292273e+002 0.000000e+000
         vertex 1.270776e+002 2.449722e+002 0.000000e+000
         vertex 8.074139e+001 2.234472e+002 0.000000e+000
      endloop
   endfacet
   facet normal 0.000000e+000 0.000000e+000 -1.000000e+000
      outer loop
         vertex 8.074139e+001 2.234472e+002 0.000000e+000
         vertex 1.270776e+002 2.449722e+002 0.000000e+000
         vertex 1.300775e+002 2.355874e+002 0.000000e+000
      endloop
   endfacet
   facet normal 0.000000e+000 0.000000e+000 -1.000000e+000
      outer loop
         vertex 8.074139e+001 2.234472e+002 0.000000e+000
         vertex 1.300775e+002 2.355874e+002 0.000000e+000
         vertex 8.207546e+001 2.171007e+002 0.000000e+000
      endloop
   endfacet
   facet normal 0.000000e+000 0.000000e+000 -1.000000e+000
      outer loop
         vertex 6.685057e+001 2.454369e+002 0.000000e+000
         vertex 1.065678e+002 2.775053e+002 0.000000e+000
         vertex 7.182391e+001 2.401317e+002 0.000000e+000
      endloop
   endfacet
   facet normal 0.000000e+000 0.000000e+000 -1.000000e+000
      outer loop
         vertex 7.182391e+001 2.401317e+002 0.000000e+000
         vertex 1.065678e+002 2.775053e+002 0.000000e+000
         vertex 1.130392e+002 2.699235e+002 0.000000e+000
      endloop
   endfacet
   facet normal 0.000000e+000 0.000000e+000 -1.000000e+000
      outer loop
         vertex 7.182391e+001 2.401317e+002 0.000000e+000
         vertex 1.130392e+002 2.699235e+002 0.000000e+000
         vertex 7.565325e+001 2.348537e+002 0.000000e+000
      endloop
   endfacet
   facet normal 0.000000e+000 0.000000e+000 -1.000000e+000
      outer loop
         vertex 7.565325e+001 2.348537e+002 0.000000e+000
         vertex 1.130392e+002 2.699235e+002 0.000000e+000
         vertex 1.186198e+002 2.619556e+002 0.000000e+000
      endloop
   endfacet
   facet normal 0.000000e+000 0.000000e+000 -1.000000e+000
      outer loop
         vertex 7.565325e+001 2.348537e+002 0.000000e+000
         vertex 1.186198e+002 2.619556e+002 0.000000e+000
         vertex 7.865390e+001 2.292273e+002 0.000000e+000
      endloop
   endfacet
   facet normal 0.000000e+000 0.000000e+000 -1.000000e+000
      outer loop
         vertex 7.865390e+001 2.292273e+002 0.000000e+000
         vertex 1.186198e+002 2.619556e+002 0.000000e+000
         vertex 1.233253e+002 2.535771e+002 0.000000e+000
      endloop
   endfacet
   facet normal 0.000000e+000 0.000000e+000 -1.000000e+000
      outer loop
         vertex 7.865390e+001 2.292273e+002 0.000000e+000
         vertex 1.233253e+002 2.535771e+002 0.000000e+000
         vertex 1.270776e+002 2.449722e+002 0.000000e+000
      endloop
   endfacet
   facet normal 0.000000e+000 0.000000e+000 -1.000000e+000
      outer loop
         vertex 8.300826e+001 2.366960e+001 0.000000e+000
         vertex 1.199617e+002 5.864721e+001 0.000000e+000
         vertex 8.987506e+001 1.651728e+001 0.000000e+000
      endloop
   endfacet
   facet normal 0.000000e+000 0.000000e+000 -1.000000e+000
      outer loop
         vertex 8.987506e+001 1.651728e+001 0.000000e+000
         vertex 1.199617e+002 5.864721e+001 0.000000e+000
         vertex 1.245390e+002 5.365825e+001 0.000000e+000
      endloop
   endfacet
   facet normal 0.000000e+000 0.000000e+000 -1.000000e+000
      outer loop
         vertex 8.987506e+001 1.651728e+001 0.000000e+000
         vertex 1.245390e+002 5.365825e+001 0.000000e+000
         vertex 9.771966e+001 9.698743e+000 0.000000e+000
      endloop
   endfacet
   facet normal 0.000000e+000 0.000000e+000 -1.000000e+000
      outer loop
         vertex 9.771966e+001 9.698743e+000 0.000000e+000
         vertex 1.245390e+002 5.365825e+001 0.000000e+000
         vertex 1.305373e+002 4.852196e+001 0.000000e+000
      endloop
   endfacet
   facet normal 0.000000e+000 0.000000e+000 -1.000000e+000
      outer loop
         vertex 9.771966e+001 9.698743e+000 0.000000e+000
         vertex 1.305373e+002 4.852196e+001 0.000000e+000
         vertex 1.066288e+002 3.186258e+000 0.000000e+000
      endloop
   endfacet
   facet normal 0.000000e+000 0.000000e+000 -1.000000e+000
      outer loop
         vertex 1.066288e+002 3.186258e+000 0.000000e+000
         vertex 1.305373e+002 4.852196e+001 0.000000e+000
         vertex 1.382604e+002 4.322797e+001 0.000000e+000
      endloop
   endfacet
   facet normal 0.000000e+000 0.000000e+000 -1.000000e+000
      outer loop
         vertex 1.066288e+002 3.186258e+000 0.000000e+000
         vertex 1.382604e+002 4.322797e+001 0.000000e+000
         vertex 1.115774e+002 0.000000e+000 0.000000e+000
      endloop
   endfacet
   facet normal 0.000000e+000 0.000000e+000 -1.000000e+000
      outer loop
         vertex 3.088889e+001 2.674591e+002 0.000000e+000
         vertex 5.788525e+001 3.110323e+002 0.000000e+000
         vertex 4.275699e+001 2.618846e+002 0.000000e+000
      endloop
   endfacet
   facet normal 0.000000e+000 0.000000e+000 -1.000000e+000
      outer loop
         vertex 4.275699e+001 2.618846e+002 0.000000e+000
         vertex 5.788525e+001 3.110323e+002 0.000000e+000
         vertex 7.020649e+001 3.048216e+002 0.000000e+000
      endloop
   endfacet
   facet normal 0.000000e+000 0.000000e+000 -1.000000e+000
      outer loop
         vertex 4.275699e+001 2.618846e+002 0.000000e+000
         vertex 7.020649e+001 3.048216e+002 0.000000e+000
         vertex 5.255090e+001 2.563258e+002 0.000000e+000
      endloop
   endfacet
   facet normal 0.000000e+000 0.000000e+000 -1.000000e+000
      outer loop
         vertex 5.255090e+001 2.563258e+002 0.000000e+000
         vertex 7.020649e+001 3.048216e+002 0.000000e+000
         vertex 8.108403e+001 2.983845e+002 0.000000e+000
      endloop
   endfacet
   facet normal 0.000000e+000 0.000000e+000 -1.000000e+000
      outer loop
         vertex 5.255090e+001 2.563258e+002 0.000000e+000
         vertex 8.108403e+001 2.983845e+002 0.000000e+000
         vertex 6.050443e+001 2.508332e+002 0.000000e+000
      endloop
   endfacet
   facet normal 0.000000e+000 0.000000e+000 -1.000000e+000
      outer loop
         vertex 6.050443e+001 2.508332e+002 0.000000e+000
         vertex 8.108403e+001 2.983845e+002 0.000000e+000
         vertex 9.068051e+001 2.917057e+002 0.000000e+000
      endloop
   endfacet
   facet normal 0.000000e+000 0.000000e+000 -1.000000e+000
      outer loop
         vertex 6.050443e+001 2.508332e+002 0.000000e+000
         vertex 9.068051e+001 2.917057e+002 0.000000e+000
         vertex 6.685057e+001 2.454369e+002 0.000000e+000
      endloop
   endfacet
   facet normal 0.000000e+000 0.000000e+000 -1.000000e+000
      outer loop
         vertex 6.685057e+001 2.454369e+002 0.000000e+000
         vertex 9.068051e+001 2.917057e+002 0.000000e+000
         vertex 9.914115e+001 2.847548e+002 0.000000e+000
      endloop
   endfacet
   facet normal 0.000000e+000 0.000000e+000 -1.000000e+000
      outer loop
         vertex 6.685057e+001 2.454369e+002 0.000000e+000
         vertex 9.914115e+001 2.847548e+002 0.000000e+000
         vertex 1.065678e+002 2.775053e+002 0.000000e+000
      endloop
   endfacet
   facet normal 0.000000e+000 0.000000e+000 -1.000000e+000
      outer loop
         vertex 0.000000e+000 2.784034e+002 0.000000e+000
         vertex 1.439328e+001 3.271217e+002 0.000000e+000
         vertex 1.663882e+001 2.730146e+002 0.000000e+000
      endloop
   endfacet
   facet normal 0.000000e+000 0.000000e+000 -1.000000e+000
      outer loop
         vertex 1.663882e+001 2.730146e+002 0.000000e+000
         vertex 1.439328e+001 3.271217e+002 0.000000e+000
         vertex 2.809623e+001 3.228024e+002 0.000000e+000
      endloop
   endfacet
   facet normal 0.000000e+000 0.000000e+000 -1.000000e+000
      outer loop
         vertex 1.663882e+001 2.730146e+002 0.000000e+000
         vertex 2.809623e+001 3.228024e+002 0.000000e+000
         vertex 3.088889e+001 2.674591e+002 0.000000e+000
      endloop
   endfacet
   facet normal 0.000000e+000 0.000000e+000 -1.000000e+000
      outer loop
         vertex 3.088889e+001 2.674591e+002 0.000000e+000
         vertex 2.809623e+001 3.228024e+002 0.000000e+000
         vertex 4.391626e+001 3.170288e+002 0.000000e+000
      endloop
   endfacet
   facet normal 0.000000e+000 0.000000e+000 -1.000000e+000
      outer loop
         vertex 3.088889e+001 2.674591e+002 0.000000e+000
         vertex 4.391626e+001 3.170288e+002 0.000000e+000
         vertex 5.788525e+001 3.110323e+002 0.000000e+000
      endloop
   endfacet
   facet normal 0.000000e+000 0.000000e+000 -1.000000e+000
      outer loop
         vertex 6.208352e+001 6.494574e+001 0.000000e+000
         vertex 6.061956e+001 7.344225e+001 0.000000e+000
         vertex 1.108709e+002 8.106200e+001 0.000000e+000
      endloop
   endfacet
   facet normal 0.000000e+000 0.000000e+000 -1.000000e+000
      outer loop
         vertex 1.108709e+002 8.106200e+001 0.000000e+000
         vertex 6.061956e+001 7.344225e+001 0.000000e+000
         vertex 5.984044e+001 8.277003e+001 0.000000e+000
      endloop
   endfacet
   facet normal 0.000000e+000 0.000000e+000 -1.000000e+000
      outer loop
         vertex 1.108709e+002 8.106200e+001 0.000000e+000
         vertex 5.984044e+001 8.277003e+001 0.000000e+000
         vertex 1.105469e+002 8.836840e+001 0.000000e+000
      endloop
   endfacet
   facet normal 0.000000e+000 0.000000e+000 -1.000000e+000
      outer loop
         vertex 1.105469e+002 8.836840e+001 0.000000e+000
         vertex 5.984044e+001 8.277003e+001 0.000000e+000
         vertex 5.984572e+001 9.268639e+001 0.000000e+000
      endloop
   endfacet
   facet normal 0.000000e+000 0.000000e+000 -1.000000e+000
      outer loop
         vertex 1.105469e+002 8.836840e+001 0.000000e+000
         vertex 5.984572e+001 9.268639e+001 0.000000e+000
         vertex 1.110844e+002 9.690947e+001 0.000000e+000
      endloop
   endfacet
   facet normal 0.000000e+000 0.000000e+000 -1.000000e+000
      outer loop
         vertex 1.110844e+002 9.690947e+001 0.000000e+000
         vertex 5.984572e+001 9.268639e+001 0.000000e+000
         vertex 6.067596e+001 1.032837e+002 0.000000e+000
      endloop
   endfacet
   facet normal 0.000000e+000 0.000000e+000 -1.000000e+000
      outer loop
         vertex 1.110844e+002 9.690947e+001 0.000000e+000
         vertex 6.067596e+001 1.032837e+002 0.000000e+000
         vertex 1.125858e+002 1.069032e+002 0.000000e+000
      endloop
   endfacet
   facet normal 0.000000e+000 0.000000e+000 -1.000000e+000
      outer loop
         vertex 1.125858e+002 1.069032e+002 0.000000e+000
         vertex 6.067596e+001 1.032837e+002 0.000000e+000
         vertex 6.239955e+001 1.148699e+002 0.000000e+000
      endloop
   endfacet
   facet normal 0.000000e+000 0.000000e+000 -1.000000e+000
      outer loop
         vertex 1.125858e+002 1.069032e+002 0.000000e+000
         vertex 6.239955e+001 1.148699e+002 0.000000e+000
         vertex 1.151780e+002 1.187704e+002 0.000000e+000
      endloop
   endfacet
   facet normal 0.000000e+000 0.000000e+000 -1.000000e+000
      outer loop
         vertex 1.151780e+002 1.187704e+002 0.000000e+000
         vertex 6.239955e+001 1.148699e+002 0.000000e+000
         vertex 6.509720e+001 1.277757e+002 0.000000e+000
      endloop
   endfacet
   facet normal 0.000000e+000 0.000000e+000 -1.000000e+000
      outer loop
         vertex 1.151780e+002 1.187704e+002 0.000000e+000
         vertex 6.509720e+001 1.277757e+002 0.000000e+000
         vertex 1.204326e+002 1.383704e+002 0.000000e+000
      endloop
   endfacet
   facet normal 0.000000e+000 0.000000e+000 -1.000000e+000
      outer loop
         vertex 1.204326e+002 1.383704e+002 0.000000e+000
         vertex 6.509720e+001 1.277757e+002 0.000000e+000
         vertex 6.932198e+001 1.441926e+002 0.000000e+000
      endloop
   endfacet
   facet normal 0.000000e+000 0.000000e+000 -1.000000e+000
      outer loop
         vertex 1.204326e+002 1.383704e+002 0.000000e+000
         vertex 6.932198e+001 1.441926e+002 0.000000e+000
         vertex 1.264144e+002 1.602898e+002 0.000000e+000
      endloop
   endfacet
   facet normal 0.000000e+000 0.000000e+000 -1.000000e+000
      outer loop
         vertex 1.264144e+002 1.602898e+002 0.000000e+000
         vertex 6.932198e+001 1.441926e+002 0.000000e+000
         vertex 7.480648e+001 1.638629e+002 0.000000e+000
      endloop
   endfacet
   facet normal 0.000000e+000 0.000000e+000 -1.000000e+000
      outer loop
         vertex 1.264144e+002 1.602898e+002 0.000000e+000
         vertex 7.480648e+001 1.638629e+002 0.000000e+000
         vertex 1.295318e+002 1.736408e+002 0.000000e+000
      endloop
   endfacet
   facet normal 0.000000e+000 0.000000e+000 -1.000000e+000
      outer loop
         vertex 1.295318e+002 1.736408e+002 0.000000e+000
         vertex 7.480648e+001 1.638629e+002 0.000000e+000
         vertex 7.907756e+001 1.806865e+002 0.000000e+000
      endloop
   endfacet
   facet normal 0.000000e+000 0.000000e+000 -1.000000e+000
      outer loop
         vertex 1.295318e+002 1.736408e+002 0.000000e+000
         vertex 7.907756e+001 1.806865e+002 0.000000e+000
         vertex 1.317674e+002 1.860417e+002 0.000000e+000
      endloop
   endfacet
   facet normal 0.000000e+000 0.000000e+000 -1.000000e+000
      outer loop
         vertex 1.317674e+002 1.860417e+002 0.000000e+000
         vertex 7.907756e+001 1.806865e+002 0.000000e+000
         vertex 8.127671e+001 1.919465e+002 0.000000e+000
      endloop
   endfacet
   facet normal 0.000000e+000 0.000000e+000 -1.000000e+000
      outer loop
         vertex 1.317674e+002 1.860417e+002 0.000000e+000
         vertex 8.127671e+001 1.919465e+002 0.000000e+000
         vertex 1.330585e+002 1.972409e+002 0.000000e+000
      endloop
   endfacet
   facet normal 0.000000e+000 0.000000e+000 -1.000000e+000
      outer loop
         vertex 1.330585e+002 1.972409e+002 0.000000e+000
         vertex 8.127671e+001 1.919465e+002 0.000000e+000
         vertex 8.243351e+001 2.015055e+002 0.000000e+000
      endloop
   endfacet
   facet normal 0.000000e+000 0.000000e+000 -1.000000e+000
      outer loop
         vertex 1.330585e+002 1.972409e+002 0.000000e+000
         vertex 8.243351e+001 2.015055e+002 0.000000e+000
         vertex 1.334959e+002 2.076734e+002 0.000000e+000
      endloop
   endfacet
   facet normal 0.000000e+000 0.000000e+000 -1.000000e+000
      outer loop
         vertex 1.334959e+002 2.076734e+002 0.000000e+000
         vertex 8.243351e+001 2.015055e+002 0.000000e+000
         vertex 8.267367e+001 2.098510e+002 0.000000e+000
      endloop
   endfacet
   facet normal 0.000000e+000 0.000000e+000 -1.000000e+000
      outer loop
         vertex 1.334959e+002 2.076734e+002 0.000000e+000
         vertex 8.267367e+001 2.098510e+002 0.000000e+000
         vertex 1.331282e+002 2.174599e+002 0.000000e+000
      endloop
   endfacet
   facet normal 0.000000e+000 0.000000e+000 -1.000000e+000
      outer loop
         vertex 1.331282e+002 2.174599e+002 0.000000e+000
         vertex 8.267367e+001 2.098510e+002 0.000000e+000
         vertex 8.207546e+001 2.171007e+002 0.000000e+000
      endloop
   endfacet
   facet normal 0.000000e+000 0.000000e+000 -1.000000e+000
      outer loop
         vertex 1.331282e+002 2.174599e+002 0.000000e+000
         vertex 8.207546e+001 2.171007e+002 0.000000e+000
         vertex 1.319860e+002 2.267256e+002 0.000000e+000
      endloop
   endfacet
   facet normal 0.000000e+000 0.000000e+000 -1.000000e+000
      outer loop
         vertex 1.319860e+002 2.267256e+002 0.000000e+000
         vertex 8.207546e+001 2.171007e+002 0.000000e+000
         vertex 1.300775e+002 2.355874e+002 0.000000e+000
      endloop
   endfacet
endsolid