solid cube
   facet normal -1.000000e+000 0.000000e+000 1.249001e-016
      outer loop
         vertex 0.000000e+000 1.000000e+000 1.000000e+000
         vertex 0.000000e+000 1.000000e+000 0.000000e+000
         vertex 0.000000e+000 0.000000e+000 1.000000e+000
      endloop
   endfacet
   facet normal -1.000000e+000 0.000000e+000 1.249001e-016
      outer loop
         vertex 0.000000e+000 0.000000e+000 1.000000e+000
         vertex 0.000000e+000 1.000000e+000 0.000000e+000
         vertex 0.000000e+000 0.000000e+000 0.000000e+000
      endloop
   endfacet
   facet normal 1.110223e-016 0.000000e+000 1.000000e+000
      outer loop
         vertex 1.000000e+000 1.000000e+000 1.000000e+000
         vertex 0.000000e+000 1.000000e+000 1.000000e+000
         vertex 1.000000e+000 0.000000e+000 1.000000e+000
      endloop
   endfacet
   facet normal 1.110223e-016 0.000000e+000 1.000000e+000
      outer loop
         vertex 1.000000e+000 0.000000e+000 1.000000e+000
         vertex 0.000000e+000 1.000000e+000 1.000000e+000
         vertex 0.000000e+000 0.000000e+000 1.000000e+000
      endloop
   endfacet
   facet normal 1.000000e+000 0.000000e+000 0.000000e+000
      outer loop
         vertex 1.000000e+000 1.000000e+000 0.000000e+000
         vertex 1.000000e+000 1.000000e+000 1.000000e+000
         vertex 1.000000e+000 0.000000e+000 0.000000e+000
      endloop
   endfacet
   facet normal 1.000000e+000 0.000000e+000 0.000000e+000
      outer loop
         vertex 1.000000e+000 0.000000e+000 0.000000e+000
         vertex 1.000000e+000 1.000000e+000 1.000000e+000
         vertex 1.000000e+000 0.000000e+000 1.000000e+000
      endloop
   endfacet
   facet normal 0.000000e+000 0.000000e+000 -1.000000e+000
      outer loop
         vertex 0.000000e+000 1.000000e+000 0.000000e+000
         vertex 1.000000e+000 1.000000e+000 0.000000e+000
         vertex 0.000000e+000 0.000000e+000 0.000000e+000
      endloop
   endfacet
   facet normal 0.000000e+000 0.000000e+000 -1.000000e+000
      outer loop
         vertex 0.000000e+000 0.000000e+000 0.000000e+000
         vertex 1.000000e+000 1.000000e+000 0.000000e+000
         vertex 1.000000e+000 0.000000e+000 0.000000e+000
      endloop
   endfacet
   facet normal 0.000000e+000 1.000000e+000 0.000000e+000
      outer loop
         vertex 1.000000e+000 1.000000e+000 1.000000e+000
         vertex 1.000000e+000 1.000000e+000 0.000000e+000
         vertex 0.000000e+000 1.000000e+000 1.000000e+000
      endloop
   endfacet
   facet normal 0.000000e+000 1.000000e+000 0.000000e+000
      outer loop
         vertex 0.000000e+000 1.000000e+000 1.000000e+000
         vertex 1.000000e+000 1.000000e+000 0.000000e+000
         vertex 0.000000e+000 1.000000e+000 0.000000e+000
      endloop
   endfacet
   facet normal 0.000000e+000 -1.000000e+000 0.000000e+000
      outer loop
         vertex 1.000000e+000 0.000000e+000 0.000000e+000
         vertex 1.000000e+000 0.000000e+000 1.000000e+000
         vertex 0.000000e+000 0.000000e+000 0.000000e+000
      endloop
   endfacet
   facet normal 0.000000e+000 -1.000000e+000 0.000000e+000
      outer loop
         vertex 0.000000e+000 0.000000e+000 0.000000e+000
         vertex 1.000000e+000 0.000000e+000 1.000000e+000
         vertex 0.000000e+000 0.000000e+000 1.000000e+000
      endloop
   endfacet
endsolid